<mxfile host="app.diagrams.net" modified="2020-03-28T03:24:54.116Z" agent="Mozilla/5.0 (Windows NT 10.0; Win64; x64) AppleWebKit/537.36 (KHTML, like Gecko) Chrome/80.0.3987.149 Safari/537.36" etag="78ubkWibuj5ZVvRKu5ru" version="12.9.2" type="github">
  <diagram id="r02RHBNnV6Bh3Al3e_Ir" name="Page-1">
    <mxGraphModel dx="1422" dy="762" grid="1" gridSize="10" guides="1" tooltips="1" connect="1" arrows="1" fold="1" page="1" pageScale="1" pageWidth="1654" pageHeight="1169" math="0" shadow="0">
      <root>
        <mxCell id="0" />
        <mxCell id="1" parent="0" />
        <mxCell id="nwkV5xv7XDDrVNL-zr_2-1" value="" style="shape=umlActor;verticalLabelPosition=bottom;labelBackgroundColor=#ffffff;verticalAlign=top;html=1;outlineConnect=0;" parent="1" vertex="1">
          <mxGeometry x="150" y="340" width="30" height="60" as="geometry" />
        </mxCell>
        <mxCell id="nwkV5xv7XDDrVNL-zr_2-4" value="" style="endArrow=none;dashed=1;html=1;" parent="1" source="nwkV5xv7XDDrVNL-zr_2-1" edge="1">
          <mxGeometry width="50" height="50" relative="1" as="geometry">
            <mxPoint x="400" y="390" as="sourcePoint" />
            <mxPoint x="330" y="370" as="targetPoint" />
          </mxGeometry>
        </mxCell>
        <mxCell id="nwkV5xv7XDDrVNL-zr_2-5" value="Connect to Server" style="text;html=1;strokeColor=none;fillColor=none;align=center;verticalAlign=middle;whiteSpace=wrap;rounded=0;" parent="1" vertex="1">
          <mxGeometry x="200" y="350" width="110" height="20" as="geometry" />
        </mxCell>
        <mxCell id="nwkV5xv7XDDrVNL-zr_2-6" value="" style="triangle;whiteSpace=wrap;html=1;" parent="1" vertex="1">
          <mxGeometry x="160" y="440" width="120" height="120" as="geometry" />
        </mxCell>
        <mxCell id="nwkV5xv7XDDrVNL-zr_2-7" value="Application Start" style="text;html=1;strokeColor=none;fillColor=none;align=center;verticalAlign=middle;whiteSpace=wrap;rounded=0;" parent="1" vertex="1">
          <mxGeometry x="160" y="490" width="100" height="20" as="geometry" />
        </mxCell>
        <mxCell id="nwkV5xv7XDDrVNL-zr_2-11" value="" style="rounded=0;whiteSpace=wrap;html=1;" parent="1" vertex="1">
          <mxGeometry x="20" y="460" width="100" height="20" as="geometry" />
        </mxCell>
        <mxCell id="nwkV5xv7XDDrVNL-zr_2-9" value="Ip/Host Address" style="text;html=1;strokeColor=none;fillColor=none;align=center;verticalAlign=middle;whiteSpace=wrap;rounded=0;" parent="1" vertex="1">
          <mxGeometry x="20" y="460" width="100" height="20" as="geometry" />
        </mxCell>
        <mxCell id="nwkV5xv7XDDrVNL-zr_2-12" value="" style="rounded=0;whiteSpace=wrap;html=1;" parent="1" vertex="1">
          <mxGeometry x="20" y="520" width="100" height="20" as="geometry" />
        </mxCell>
        <mxCell id="nwkV5xv7XDDrVNL-zr_2-13" value="Port" style="text;html=1;strokeColor=none;fillColor=none;align=center;verticalAlign=middle;whiteSpace=wrap;rounded=0;" parent="1" vertex="1">
          <mxGeometry x="20" y="520" width="100" height="20" as="geometry" />
        </mxCell>
        <mxCell id="nwkV5xv7XDDrVNL-zr_2-14" value="" style="endArrow=none;dashed=1;html=1;exitX=1;exitY=0.5;exitDx=0;exitDy=0;entryX=0;entryY=0.25;entryDx=0;entryDy=0;" parent="1" source="nwkV5xv7XDDrVNL-zr_2-9" target="nwkV5xv7XDDrVNL-zr_2-6" edge="1">
          <mxGeometry width="50" height="50" relative="1" as="geometry">
            <mxPoint x="240" y="520" as="sourcePoint" />
            <mxPoint x="290" y="470" as="targetPoint" />
          </mxGeometry>
        </mxCell>
        <mxCell id="nwkV5xv7XDDrVNL-zr_2-15" value="" style="endArrow=none;dashed=1;html=1;exitX=1;exitY=0.5;exitDx=0;exitDy=0;entryX=0;entryY=0.75;entryDx=0;entryDy=0;" parent="1" source="nwkV5xv7XDDrVNL-zr_2-13" target="nwkV5xv7XDDrVNL-zr_2-6" edge="1">
          <mxGeometry width="50" height="50" relative="1" as="geometry">
            <mxPoint x="130" y="480" as="sourcePoint" />
            <mxPoint x="170" y="480" as="targetPoint" />
          </mxGeometry>
        </mxCell>
        <mxCell id="nwkV5xv7XDDrVNL-zr_2-16" value="" style="endArrow=classic;html=1;exitX=1;exitY=0.5;exitDx=0;exitDy=0;" parent="1" source="nwkV5xv7XDDrVNL-zr_2-6" edge="1">
          <mxGeometry width="50" height="50" relative="1" as="geometry">
            <mxPoint x="360" y="480" as="sourcePoint" />
            <mxPoint x="320" y="500" as="targetPoint" />
          </mxGeometry>
        </mxCell>
        <mxCell id="nwkV5xv7XDDrVNL-zr_2-30" style="edgeStyle=orthogonalEdgeStyle;rounded=0;orthogonalLoop=1;jettySize=auto;html=1;entryX=0;entryY=0.5;entryDx=0;entryDy=0;exitX=0.5;exitY=0;exitDx=0;exitDy=0;dashed=1;" parent="1" source="Jixa7gBj_222kOkIKWaB-18" edge="1" target="nwkV5xv7XDDrVNL-zr_2-33">
          <mxGeometry relative="1" as="geometry">
            <mxPoint x="949" y="405" as="targetPoint" />
            <Array as="points">
              <mxPoint x="739" y="405" />
            </Array>
            <mxPoint x="739.5" y="445" as="sourcePoint" />
          </mxGeometry>
        </mxCell>
        <mxCell id="nwkV5xv7XDDrVNL-zr_2-26" value="" style="rounded=0;whiteSpace=wrap;html=1;" parent="1" vertex="1">
          <mxGeometry x="779" y="610" width="90" height="35" as="geometry" />
        </mxCell>
        <mxCell id="nwkV5xv7XDDrVNL-zr_2-28" style="edgeStyle=orthogonalEdgeStyle;rounded=0;orthogonalLoop=1;jettySize=auto;html=1;entryX=1;entryY=0.5;entryDx=0;entryDy=0;exitX=0;exitY=0.5;exitDx=0;exitDy=0;" parent="1" source="nwkV5xv7XDDrVNL-zr_2-27" target="Jixa7gBj_222kOkIKWaB-24" edge="1">
          <mxGeometry relative="1" as="geometry">
            <mxPoint x="739.5" y="585" as="targetPoint" />
          </mxGeometry>
        </mxCell>
        <mxCell id="nwkV5xv7XDDrVNL-zr_2-27" value="Sleep for 5 Seconds" style="text;html=1;strokeColor=none;fillColor=none;align=center;verticalAlign=middle;whiteSpace=wrap;rounded=0;" parent="1" vertex="1">
          <mxGeometry x="779" y="610" width="90" height="35" as="geometry" />
        </mxCell>
        <mxCell id="nwkV5xv7XDDrVNL-zr_2-29" value="Failed to Connect" style="text;html=1;strokeColor=none;fillColor=none;align=center;verticalAlign=middle;whiteSpace=wrap;rounded=0;" parent="1" vertex="1">
          <mxGeometry x="819" y="470" width="100" height="20" as="geometry" />
        </mxCell>
        <mxCell id="nwkV5xv7XDDrVNL-zr_2-31" value="Successfully Connected" style="text;html=1;strokeColor=none;fillColor=none;align=center;verticalAlign=middle;whiteSpace=wrap;rounded=0;" parent="1" vertex="1">
          <mxGeometry x="770" y="380" width="160" height="20" as="geometry" />
        </mxCell>
        <mxCell id="nwkV5xv7XDDrVNL-zr_2-32" value="" style="rounded=0;whiteSpace=wrap;html=1;" parent="1" vertex="1">
          <mxGeometry x="979" y="375" width="120" height="60" as="geometry" />
        </mxCell>
        <mxCell id="Jixa7gBj_222kOkIKWaB-4" style="edgeStyle=orthogonalEdgeStyle;rounded=0;orthogonalLoop=1;jettySize=auto;html=1;entryX=0;entryY=0.5;entryDx=0;entryDy=0;" edge="1" parent="1" source="nwkV5xv7XDDrVNL-zr_2-33" target="Jixa7gBj_222kOkIKWaB-1">
          <mxGeometry relative="1" as="geometry" />
        </mxCell>
        <mxCell id="nwkV5xv7XDDrVNL-zr_2-33" value="Start Receive Message Thread" style="text;html=1;strokeColor=none;fillColor=none;align=center;verticalAlign=middle;whiteSpace=wrap;rounded=0;" parent="1" vertex="1">
          <mxGeometry x="979" y="375" width="120" height="60" as="geometry" />
        </mxCell>
        <mxCell id="Jixa7gBj_222kOkIKWaB-5" style="edgeStyle=orthogonalEdgeStyle;rounded=0;orthogonalLoop=1;jettySize=auto;html=1;entryX=0.5;entryY=0;entryDx=0;entryDy=0;" edge="1" parent="1" source="Jixa7gBj_222kOkIKWaB-1" target="Jixa7gBj_222kOkIKWaB-3">
          <mxGeometry relative="1" as="geometry" />
        </mxCell>
        <mxCell id="Jixa7gBj_222kOkIKWaB-1" value="Wait for Message" style="rounded=0;whiteSpace=wrap;html=1;" vertex="1" parent="1">
          <mxGeometry x="1139" y="375" width="120" height="60" as="geometry" />
        </mxCell>
        <mxCell id="Jixa7gBj_222kOkIKWaB-8" style="edgeStyle=orthogonalEdgeStyle;rounded=0;orthogonalLoop=1;jettySize=auto;html=1;entryX=0;entryY=0.5;entryDx=0;entryDy=0;" edge="1" parent="1" source="Jixa7gBj_222kOkIKWaB-3" target="Jixa7gBj_222kOkIKWaB-6">
          <mxGeometry relative="1" as="geometry" />
        </mxCell>
        <mxCell id="Jixa7gBj_222kOkIKWaB-9" style="edgeStyle=orthogonalEdgeStyle;rounded=0;orthogonalLoop=1;jettySize=auto;html=1;exitX=0;exitY=0.5;exitDx=0;exitDy=0;dashed=1;" edge="1" parent="1" source="Jixa7gBj_222kOkIKWaB-3">
          <mxGeometry relative="1" as="geometry">
            <mxPoint x="460" y="630" as="targetPoint" />
            <Array as="points">
              <mxPoint x="990" y="555" />
              <mxPoint x="990" y="690" />
              <mxPoint x="460" y="690" />
            </Array>
          </mxGeometry>
        </mxCell>
        <mxCell id="Jixa7gBj_222kOkIKWaB-3" value="Socket Error or Lost Connection?" style="rhombus;whiteSpace=wrap;html=1;" vertex="1" parent="1">
          <mxGeometry x="1129" y="485" width="140" height="140" as="geometry" />
        </mxCell>
        <mxCell id="Jixa7gBj_222kOkIKWaB-31" value="" style="edgeStyle=orthogonalEdgeStyle;rounded=0;orthogonalLoop=1;jettySize=auto;html=1;" edge="1" parent="1" source="Jixa7gBj_222kOkIKWaB-6" target="Jixa7gBj_222kOkIKWaB-30">
          <mxGeometry relative="1" as="geometry" />
        </mxCell>
        <mxCell id="Jixa7gBj_222kOkIKWaB-6" value="Receive First 2 Bytes of Message, For Payload Size" style="rounded=0;whiteSpace=wrap;html=1;" vertex="1" parent="1">
          <mxGeometry x="1370" y="370" width="190" height="60" as="geometry" />
        </mxCell>
        <mxCell id="Jixa7gBj_222kOkIKWaB-33" value="" style="edgeStyle=orthogonalEdgeStyle;rounded=0;orthogonalLoop=1;jettySize=auto;html=1;" edge="1" parent="1" source="Jixa7gBj_222kOkIKWaB-30" target="Jixa7gBj_222kOkIKWaB-32">
          <mxGeometry relative="1" as="geometry" />
        </mxCell>
        <mxCell id="Jixa7gBj_222kOkIKWaB-30" value="Receive Payload" style="rounded=0;whiteSpace=wrap;html=1;" vertex="1" parent="1">
          <mxGeometry x="1370" y="480" width="190" height="60" as="geometry" />
        </mxCell>
        <mxCell id="Jixa7gBj_222kOkIKWaB-34" style="edgeStyle=orthogonalEdgeStyle;rounded=0;orthogonalLoop=1;jettySize=auto;html=1;entryX=0.5;entryY=0;entryDx=0;entryDy=0;" edge="1" parent="1" source="Jixa7gBj_222kOkIKWaB-32" target="Jixa7gBj_222kOkIKWaB-1">
          <mxGeometry relative="1" as="geometry">
            <mxPoint x="1190" y="320" as="targetPoint" />
            <Array as="points">
              <mxPoint x="1600" y="615" />
              <mxPoint x="1600" y="300" />
              <mxPoint x="1199" y="300" />
            </Array>
          </mxGeometry>
        </mxCell>
        <mxCell id="Jixa7gBj_222kOkIKWaB-32" value="Queue Message&lt;br&gt;To be processed on the main thread" style="rounded=0;whiteSpace=wrap;html=1;" vertex="1" parent="1">
          <mxGeometry x="1370" y="585" width="190" height="60" as="geometry" />
        </mxCell>
        <mxCell id="Jixa7gBj_222kOkIKWaB-10" value="Yes" style="text;html=1;strokeColor=none;fillColor=none;align=center;verticalAlign=middle;whiteSpace=wrap;rounded=0;" vertex="1" parent="1">
          <mxGeometry x="1079" y="525" width="40" height="20" as="geometry" />
        </mxCell>
        <mxCell id="Jixa7gBj_222kOkIKWaB-11" value="No" style="text;html=1;strokeColor=none;fillColor=none;align=center;verticalAlign=middle;whiteSpace=wrap;rounded=0;" vertex="1" parent="1">
          <mxGeometry x="1280" y="530" width="40" height="20" as="geometry" />
        </mxCell>
        <mxCell id="Jixa7gBj_222kOkIKWaB-19" style="edgeStyle=orthogonalEdgeStyle;rounded=0;orthogonalLoop=1;jettySize=auto;html=1;entryX=0;entryY=0.5;entryDx=0;entryDy=0;" edge="1" parent="1" source="Jixa7gBj_222kOkIKWaB-12" target="Jixa7gBj_222kOkIKWaB-18">
          <mxGeometry relative="1" as="geometry" />
        </mxCell>
        <mxCell id="Jixa7gBj_222kOkIKWaB-25" style="edgeStyle=orthogonalEdgeStyle;rounded=0;orthogonalLoop=1;jettySize=auto;html=1;entryX=0.5;entryY=0;entryDx=0;entryDy=0;" edge="1" parent="1" source="Jixa7gBj_222kOkIKWaB-12" target="Jixa7gBj_222kOkIKWaB-24">
          <mxGeometry relative="1" as="geometry" />
        </mxCell>
        <mxCell id="Jixa7gBj_222kOkIKWaB-12" value="Is Connected?" style="rhombus;whiteSpace=wrap;html=1;" vertex="1" parent="1">
          <mxGeometry x="490" y="440" width="120" height="120" as="geometry" />
        </mxCell>
        <mxCell id="Jixa7gBj_222kOkIKWaB-14" style="edgeStyle=orthogonalEdgeStyle;rounded=0;orthogonalLoop=1;jettySize=auto;html=1;entryX=0;entryY=0.5;entryDx=0;entryDy=0;" edge="1" parent="1" source="Jixa7gBj_222kOkIKWaB-13" target="Jixa7gBj_222kOkIKWaB-12">
          <mxGeometry relative="1" as="geometry">
            <mxPoint x="450" y="500" as="targetPoint" />
          </mxGeometry>
        </mxCell>
        <mxCell id="Jixa7gBj_222kOkIKWaB-13" value="&lt;span style=&quot;white-space: normal&quot;&gt;Start Connect to Server Thread&lt;/span&gt;" style="rounded=0;whiteSpace=wrap;html=1;" vertex="1" parent="1">
          <mxGeometry x="320" y="470" width="120" height="60" as="geometry" />
        </mxCell>
        <mxCell id="Jixa7gBj_222kOkIKWaB-20" style="edgeStyle=orthogonalEdgeStyle;rounded=0;orthogonalLoop=1;jettySize=auto;html=1;entryX=1;entryY=0.5;entryDx=0;entryDy=0;" edge="1" parent="1" source="Jixa7gBj_222kOkIKWaB-18" target="nwkV5xv7XDDrVNL-zr_2-27">
          <mxGeometry relative="1" as="geometry">
            <mxPoint x="929" y="600" as="targetPoint" />
            <Array as="points">
              <mxPoint x="939" y="500" />
              <mxPoint x="939" y="628" />
            </Array>
          </mxGeometry>
        </mxCell>
        <mxCell id="Jixa7gBj_222kOkIKWaB-18" value="Connected to Server" style="rhombus;whiteSpace=wrap;html=1;" vertex="1" parent="1">
          <mxGeometry x="679" y="440" width="120" height="120" as="geometry" />
        </mxCell>
        <mxCell id="Jixa7gBj_222kOkIKWaB-21" value="No" style="text;html=1;strokeColor=none;fillColor=none;align=center;verticalAlign=middle;whiteSpace=wrap;rounded=0;" vertex="1" parent="1">
          <mxGeometry x="620" y="480" width="40" height="20" as="geometry" />
        </mxCell>
        <mxCell id="Jixa7gBj_222kOkIKWaB-23" value="" style="rounded=0;whiteSpace=wrap;html=1;" vertex="1" parent="1">
          <mxGeometry x="505" y="610" width="90" height="35" as="geometry" />
        </mxCell>
        <mxCell id="Jixa7gBj_222kOkIKWaB-26" style="edgeStyle=orthogonalEdgeStyle;rounded=0;orthogonalLoop=1;jettySize=auto;html=1;" edge="1" parent="1" source="Jixa7gBj_222kOkIKWaB-24">
          <mxGeometry relative="1" as="geometry">
            <mxPoint x="460" y="500" as="targetPoint" />
          </mxGeometry>
        </mxCell>
        <mxCell id="Jixa7gBj_222kOkIKWaB-24" value="Sleep for 5 Seconds" style="text;html=1;strokeColor=none;fillColor=none;align=center;verticalAlign=middle;whiteSpace=wrap;rounded=0;" vertex="1" parent="1">
          <mxGeometry x="505" y="610" width="90" height="35" as="geometry" />
        </mxCell>
        <mxCell id="Jixa7gBj_222kOkIKWaB-27" value="Yes" style="text;html=1;strokeColor=none;fillColor=none;align=center;verticalAlign=middle;whiteSpace=wrap;rounded=0;" vertex="1" parent="1">
          <mxGeometry x="550" y="575" width="40" height="20" as="geometry" />
        </mxCell>
      </root>
    </mxGraphModel>
  </diagram>
</mxfile>
